<?xml version="1.0" standalone="no"?>
<!DOCTYPE svg PUBLIC "-//W3C//DTD SVG 20010904//EN"
 "http://www.w3.org/TR/2001/REC-SVG-20010904/DTD/svg10.dtd">
<svg version="1.0" xmlns="http://www.w3.org/2000/svg"
 width="246.000000pt" height="210.000000pt" viewBox="0 0 246.000000 210.000000"
 preserveAspectRatio="xMidYMid meet">
<metadata>
Created by potrace 1.10, written by Peter Selinger 2001-2011
</metadata>
<g transform="translate(0.000000,210.000000) scale(0.050000,-0.050000)"
fill="#000000" stroke="none">
<path d="M1955 3745 l-295 -295 0 -195 0 -195 -600 0 -600 0 0 -1400 0 -1400
1800 0 1800 0 -5 995 -5 995 -595 5 -595 6 0 595 0 595 -295 294 c-163 162
-300 295 -305 295 -6 0 -143 -133 -305 -295z m501 -491 l-6 -184 -195 -6 -195
-5 0 187 c0 227 -22 205 209 198 l192 -7 -5 -183z m-1200 -799 l5 -195 -200 0
-201 0 0 187 c0 227 -11 216 209 209 l181 -6 6 -195z m1200 0 l5 -195 -200 0
-201 0 0 187 c0 227 -11 216 209 209 l181 -6 6 -195z m-1200 -800 l5 -195
-200 0 -201 0 0 187 c0 227 -11 216 209 209 l181 -6 6 -195z m1200 0 l5 -195
-200 0 -201 0 0 187 c0 227 -11 216 209 209 l181 -6 6 -195z m1200 0 l5 -195
-200 0 -201 0 0 187 c0 227 -11 216 209 209 l181 -6 6 -195z m-2400 -801 l5
-194 -200 0 -201 0 0 187 c0 225 -22 203 203 202 l187 -1 6 -194z m1190 187
c8 -1 13 -84 10 -186 l-6 -185 -195 -6 -195 -5 0 187 c0 103 4 191 8 196 7 6
254 5 378 -1z m1210 -189 l5 -192 -200 0 -201 0 0 187 c0 225 -22 204 203 200
l187 -2 6 -193z"/>
</g>
</svg>
