<?xml version="1.0" standalone="no"?>
<!DOCTYPE svg PUBLIC "-//W3C//DTD SVG 20010904//EN"
 "http://www.w3.org/TR/2001/REC-SVG-20010904/DTD/svg10.dtd">
<svg version="1.0" xmlns="http://www.w3.org/2000/svg"
 width="249.000000pt" height="246.000000pt" viewBox="0 0 249.000000 246.000000"
 preserveAspectRatio="xMidYMid meet">
<metadata>
Created by potrace 1.10, written by Peter Selinger 2001-2011
</metadata>
<g transform="translate(0.000000,246.000000) scale(0.100000,-0.100000)"
fill="#000000" stroke="none">
<path d="M869 2157 c-324 -181 -349 -196 -349 -205 0 -5 17 -16 38 -26 77 -38
410 -189 481 -218 l73 -31 182 78 c99 43 205 89 235 102 l54 24 -7 -98 c-4
-54 -8 -113 -9 -132 -2 -30 2 -36 23 -41 l25 -6 -23 -6 c-21 -6 -23 -11 -20
-64 2 -41 8 -60 20 -68 35 -22 39 2 31 222 l-8 212 59 24 59 23 -94 55 c-114
67 -498 275 -519 281 -8 3 -121 -54 -251 -126z"/>
<path d="M660 1692 c0 -139 -1 -150 -21 -168 -19 -17 -21 -27 -17 -86 4 -43
12 -78 26 -100 64 -103 16 -256 -105 -339 l-48 -33 40 -12 c22 -7 89 -13 148
-13 112 -1 146 8 193 50 21 19 21 19 79 -16 97 -58 168 -60 256 -5 l52 32 63
-33 c83 -42 179 -50 285 -24 63 16 71 20 54 29 -49 27 -123 115 -144 170 -29
78 -27 125 9 196 38 74 42 160 10 187 -18 16 -20 30 -20 155 0 76 -2 138 -5
138 -2 0 -93 -38 -201 -85 l-196 -85 -218 95 c-120 52 -223 95 -229 95 -8 0
-11 -47 -11 -148z m172 -71 c80 -21 156 -55 224 -102 l42 -28 68 35 c61 31
250 81 262 69 2 -2 -1 -34 -7 -71 -7 -36 -9 -69 -5 -73 4 -3 9 -1 11 5 20 57
63 56 63 -2 0 -28 -17 -66 -70 -154 -80 -136 -173 -231 -272 -281 l-62 -31
-64 31 c-84 42 -170 125 -240 231 -30 47 -66 101 -79 121 -42 64 -30 167 15
126 10 -9 22 -17 26 -17 5 0 5 36 1 80 -4 49 -3 80 2 80 6 0 44 -9 85 -19z"/>
<path d="M1087 880 c-32 -4 -56 -14 -72 -31 l-25 -24 40 -46 39 -46 -39 -99
-39 -99 60 -60 59 -60 60 61 61 60 -36 92 c-19 50 -35 95 -35 100 0 5 16 29
35 53 l34 44 -21 22 c-28 30 -64 40 -121 33z"/>
<path d="M631 825 c-265 -90 -316 -124 -350 -229 -22 -68 -41 -199 -41 -289 0
-57 1 -58 35 -73 64 -26 229 -63 360 -80 172 -22 525 -22 740 0 143 15 337 43
539 78 l69 11 -7 125 c-3 69 -14 157 -22 195 -30 132 -106 185 -391 271 -83
25 -153 46 -156 46 -3 0 -9 -21 -12 -47 -10 -70 -43 -169 -82 -244 -34 -67
-176 -219 -203 -219 -7 0 -50 38 -95 83 -99 101 -147 190 -176 330 -10 51 -19
93 -19 95 0 8 -43 -4 -189 -53z"/>
</g>
</svg>
